# xmcd CD database file
#
# Track frame offsets:
#	150
#	17040
#	42864
#	52911
#	71916
#	103568
#	126668
#	155359
#
# Disc length: 2394 seconds
#
# Revision: 0
# Processed by: cddbd v1.4PL0 Copyright (c) Steve Scherf et al.
# Submitted via: CDex 1.50beta10
#
DISCID=69095808
DTITLE=Chick Corea - Secret agent
DYEAR=1978
DGENRE=Jazz
TTITLE0=The golden dawn
TTITLE1=Slinky
TTITLE2=Mirage
TTITLE3=Drifting
TTITLE4=Glebe St. blues
TTITLE5=Fickle funk
TTITLE6=Hot news blues
TTITLE7=Central Park
EXTD=YEAR: 1978
EXTT0=
EXTT1=
EXTT2=
EXTT3=
EXTT4=
EXTT5=
EXTT6=
EXTT7=
PLAYORDER=
